Format : AVI
Format/Info : Audio Video Interleave
File size : 695 MiB
Duration : 1h 41mn
Overall bit rate : 960 Kbps

Video
ID : 0
Format : MPEG-4 Visual
Format profile : Advanced Simple@L5
Format settings, BVOP : 2
Format settings, QPel : No
Format settings, GMC : No warppoints
Format settings, Matrix : Default (H.263)
Codec ID : XVID
Codec ID/Hint : XviD
Duration : 1h 41mn
Bit rate : 794 Kbps
Width : 640 pixels
Height : 272 pixels
Display aspect ratio : 2.35:1
Frame rate : 23.976 fps
Color space : YUV
Chroma subsampling : 4:2:0
Bit depth : 8 bits
Scan type : Progressive
Compression mode : Lossy
Bits/(Pixel*Frame) : 0.190
Stream size : 575 MiB (83%)
Writing library : XviD 1.2.1 (UTC 2008-12-04)

Audio
ID : 1
Format : MPEG Audio
Format version : Version 1
Format profile : Layer 3
Mode : Joint stereo
Mode extension : MS Stereo
Codec ID : 55
Codec ID/Hint : MP3
Duration : 1h 41mn
Bit rate mode : Constant
Bit rate : 160 Kbps
Channel(s) : 2 channels
Sampling rate : 48.0 KHz
Compression mode : Lossy
Stream size : 116 MiB (17%)
Alignment : Aligned on interleaves
Interleave, duration : 167 ms (4.00 video frames)
Interleave, preload duration : 216 ms


Plot

A video game villain wants to be a hero and sets out to fulfill his dream, but his quest brings havoc to the whole arcade where he lives.


 
http://www.shotpix.com/images/67842011750035803595.png 
http://www.shotpix.com/images/33290624169939305082.png 
http://www.shotpix.com/images/27426731303353113939.png 
http://www.shotpix.com/images/48041796208968821853.png